<?xml version="1.0" encoding="utf-8"?>
<!-- Generator: Adobe Illustrator 23.0.0, SVG Export Plug-In . SVG Version: 6.00 Build 0)  -->
<svg version="1.1" id="圖層_1" xmlns="http://www.w3.org/2000/svg" xmlns:xlink="http://www.w3.org/1999/xlink" x="0px" y="0px"
	 viewBox="0 0 86.45 86.99" style="enable-background:new 0 0 86.45 86.99;" xml:space="preserve">
<style type="text/css">
	.st0{fill:#F56C23;}
	.st1{fill:#BA4D1E;}
	.st2{fill:#FFFFFF;}
</style>
<polygon class="st0" points="86.45,46.34 86.45,79.98 79.44,72.98 12.93,6.46 6.47,0 40.12,0 "/>
<polygon class="st1" points="12.93,6.46 0,6.46 6.46,0 6.47,0 "/>
<polygon class="st1" points="86.45,79.98 86.45,79.99 79.44,86.99 79.44,72.98 "/>
<g>
	<path class="st2" d="M39.42,11.36l-0.94-0.94l-0.34,0.34c-0.13,0.13-0.11,0.29,0.07,0.47l0.67,0.67l-0.87,0.87l-1.09-1.09
		c-0.52-0.52-0.51-1.07,0.06-1.63l0.56-0.56l-0.95-0.95c-0.93,0.57-2.22,0.49-3.84-0.25l0.34-1.26c0.99,0.52,1.81,0.67,2.45,0.45
		l-1.27-1.27l0.88-0.88l2.13,2.13l0.55-0.55l-1.83-1.83l0.87-0.87l1.83,1.83l0.67-0.67l1,1L39.7,7.03l1.75,1.75l-0.87,0.87
		L38.82,7.9l-0.55,0.55l2.03,2.03L39.42,11.36z M31.15,13.46c-1.19,0.54-2.32,0.85-3.4,0.93l-0.4-1.42c1.11-0.1,2.19-0.37,3.24-0.81
		L31.15,13.46z M35.42,15.23c-1.93-1.27-3.85-2.64-5.76-4.12L30.36,10c0.98,0.82,1.81,1.45,2.47,1.91l0.78-0.78l-1.7-1.7l0.88-0.88
		l1.68,1.68l0.93-0.93l1,1l-0.93,0.93l1.65,1.65l-0.88,0.88l-1.65-1.65l-0.61,0.61l2.3,1.63L35.42,15.23z M31.75,17.94l-1.22-0.85
		c0.59-0.71,1.17-1.65,1.74-2.8l1.24,0.76C32.99,16.12,32.4,17.08,31.75,17.94z M42.3,18.9c-0.96,0.78-1.68,1.24-2.15,1.39
		c-0.48,0.15-0.86,0.07-1.17-0.23c-0.32-0.32-0.38-0.75-0.19-1.28c0.19-0.54,0.65-1.19,1.36-1.95s1.66-1.73,2.84-2.91l-0.71-0.71
		c-0.8,0.75-1.62,1.43-2.47,2.05c-0.1,0.7-0.25,1.4-0.47,2.07L38,17.19c0.13-0.39,0.23-0.76,0.3-1.11
		c-0.98,0.42-1.92,0.69-2.82,0.82l-0.38-1.41c1.27-0.19,2.44-0.57,3.51-1.13c0.1-0.69,0.15-1.37,0.16-2.05l1.34,0.14
		c0.02,0.27,0,0.58-0.06,0.93c0.45-0.29,0.87-0.66,1.26-1.1l-1.02-1.02l0.95-0.95l1.03,1.03c0.67-0.63,1.18-1.13,1.54-1.51
		l0.95,0.95c-0.39,0.39-0.91,0.89-1.55,1.5l1.7,1.7c-1.1,1.06-2.01,1.94-2.71,2.64c-0.79,0.79-1.29,1.32-1.51,1.6
		c-0.22,0.28-0.35,0.45-0.4,0.52c-0.05,0.07-0.05,0.12,0,0.17c0.01,0.01,0.03,0.02,0.05,0.03c0.02,0.01,0.23-0.12,0.6-0.4
		c0.38-0.28,0.73-0.56,1.05-0.84L42.3,18.9z M34.59,20.66l-1.25-0.73c0.57-1.05,1.01-2.09,1.32-3.13l1.29,0.68
		C35.62,18.61,35.16,19.67,34.59,20.66z M37.42,23.41l-1.36-0.6c0.49-1.12,0.84-2.3,1.04-3.53l1.4,0.53
		C38.18,21.21,37.82,22.41,37.42,23.41z"/>
	<path class="st2" d="M51.2,21.4l-1.45,0.13c0.1-1.03,0.1-2.05,0-3.06c-0.74,0.19-1.52,0.33-2.36,0.43l2.14,2.14l-0.95,0.95
		l-0.83-0.83l-0.88,0.88l1.46,1.46l-0.95,0.95l-1.46-1.46l-3.03,3.03c0.61,0.38,1.18,0.69,1.71,0.94l-0.86,1
		c-1.84-0.91-3.44-1.81-4.8-2.68l0.67-1.21c0.81,0.55,1.47,0.97,1.98,1.25l3.33-3.33l-1.41-1.41l0.95-0.95l1.41,1.41l0.88-0.88
		l-0.73-0.73l0.49-0.49c-0.25-0.02-0.48-0.05-0.7-0.09l0.28-1.47c1.42,0.16,2.99-0.07,4.72-0.72l0.71,1.25
		c-0.15,0.09-0.31,0.14-0.48,0.17C51.19,19.34,51.25,20.45,51.2,21.4z M41.89,24.47l-1.07-0.67c0.71-0.83,1.38-1.75,2.01-2.75
		l1.06,0.64C43.27,22.72,42.6,23.65,41.89,24.47z M46.88,24.92c-0.65,0.59-1.44,1.17-2.36,1.74l-0.63-1.04
		c0.68-0.37,1.46-0.95,2.33-1.75L46.88,24.92z M49.58,34.2c-0.24,0.24-0.54,0.38-0.88,0.41s-0.69-0.1-1.02-0.39
		s-0.59-0.53-0.77-0.71s-0.34-0.36-0.49-0.54l0.7-1.3c0.13,0.16,0.28,0.32,0.45,0.5c0.48,0.48,0.79,0.74,0.94,0.78
		c0.15,0.04,0.28,0,0.41-0.12l1.41-1.41c-1.38-0.59-2.73-1.25-4.06-1.99l0.43-1.1c-1.03,0.87-2.23,1.44-3.59,1.71l-0.1-1.61
		c1.23-0.14,2.41-0.77,3.53-1.88l3.49-3.49l2.13,2.13l3.48-3.48l1.06,1.06l-3.48,3.48l2.18,2.18L49.58,34.2z M52.45,23.85
		l-1.36-0.41c0.51-1.25,0.87-2.42,1.07-3.52l1.37,0.45C53.27,21.67,52.91,22.83,52.45,23.85z M51.27,30.46l2.11-2.11l-3.32-3.32
		l-0.6,0.6c1.03,1.33,1.76,2.4,2.19,3.22l-1.21,0.63c-0.55-1.08-1.16-2.06-1.84-2.94c-0.8,0.76-1.39,1.32-1.78,1.66
		C48.09,28.99,49.57,29.75,51.27,30.46z M58.43,26c-0.96,0.48-2.13,0.9-3.51,1.28l-0.4-1.41c1.14-0.29,2.25-0.69,3.32-1.2L58.43,26z
		"/>
	<path class="st2" d="M63.3,44.08l-4.6-4.6c-2.25,0.9-4.89,0.26-7.91-1.91l0.51-1.52c2.69,1.88,4.76,2.63,6.21,2.24l-3.94-3.94
		l0.86-0.86l4.24,4.24c0.3-0.2,0.59-0.43,0.86-0.7l1.06,1.06c-0.32,0.3-0.6,0.54-0.82,0.73l4.4,4.4L63.3,44.08z M65.52,42.34
		L55.3,32.12l0.85-0.85l4.57,4.57l0.75-0.75l-3.58-3.58l0.83-0.83l3.58,3.58l0.72-0.72l-4.09-4.09l0.85-0.85l9.22,9.22l-0.85,0.85
		l-4.06-4.06l-0.72,0.72l3.57,3.57l-0.83,0.83l-3.57-3.57l-0.75,0.75l4.58,4.58L65.52,42.34z M63.81,31.83l-1.38-0.8
		c0.11-0.62,0.16-1.25,0.16-1.88l1.39,0.7C63.99,30.51,63.93,31.17,63.81,31.83z M61.48,46.64l-1.47,0.17
		c-0.5-1.97-1.37-4.03-2.59-6.19l1.51-0.24C60.22,42.81,61.07,44.89,61.48,46.64z M68.74,35.07c-0.57,0.13-1.2,0.22-1.9,0.28
		l-0.87-1.44c0.75-0.01,1.39-0.07,1.91-0.18L68.74,35.07z"/>
	<path class="st2" d="M80.26,51.4l-1.44,0.37c-0.74-1.53-1.32-3.03-1.75-4.48l-0.67,0.67l-3.22-3.22l0.66-0.66
		c-1.44-0.44-2.91-1.02-4.43-1.74l0.4-1.44c3.02,1.57,5.56,2.34,7.65,2.3l0.84,1.38c-0.09,0.03-0.2,0.05-0.34,0.06
		C78.2,46.75,78.97,49,80.26,51.4z M73.92,54.32L67.8,48.2l-1.93,1.93c0.91,0.61,1.91,1.17,2.99,1.67l-1,1
		c-1.48-0.71-2.88-1.53-4.2-2.45l0.55-1.24c0.29,0.05,0.52,0,0.68-0.17l5.63-5.63l7.21,7.21L73.92,54.32z M75.17,50.9l0.57-0.57
		l-5.03-5.03l-0.57,0.57L75.17,50.9z M73.73,52.34l0.6-0.6l-5.03-5.03l-0.6,0.6L73.73,52.34z M76.9,46.72
		c-0.15-0.59-0.28-1.29-0.39-2.1c-0.56-0.07-1.26-0.2-2.1-0.39L76.9,46.72z M72.9,58.1l-1.41,0.17c-0.57-2.29-1.42-4.58-2.53-6.86
		l1.36-0.14c0.26,0.52,0.63,1.34,1.1,2.47c0.88,0.43,1.97,0.74,3.26,0.91l0.09,1.41c-0.9-0.09-1.79-0.28-2.67-0.56
		C72.43,56.39,72.69,57.26,72.9,58.1z"/>
</g>
</svg>
